<svg width="24" height="24" viewBox="0 0 24 24" fill="none" xmlns="http://www.w3.org/2000/svg">
<path d="M19.4229 8.35742L13.0996 5.46582C12.4365 5.16504 11.8896 5.02832 11.3564 5.03516C10.8164 5.02832 10.2764 5.16504 9.60645 5.46582L3.2832 8.35742C2.85938 8.54883 2.64746 8.89746 2.64746 9.24609C2.64746 9.59473 2.85938 9.92969 3.2832 10.1211L5.90137 11.3105L10.0234 9.38281C9.98926 9.33496 9.97559 9.28711 9.97559 9.24609C9.97559 8.81543 10.6729 8.50098 11.377 8.50098C12.0879 8.50098 12.7715 8.81543 12.7715 9.24609C12.7715 9.68359 12.0879 10.0049 11.377 10.0049C11.1582 10.0049 10.9395 9.97754 10.748 9.91602L6.83105 11.748L9.60645 13.0195C10.2764 13.334 10.8164 13.4639 11.3564 13.457C11.8896 13.4639 12.4365 13.3271 13.0996 13.0195L19.4229 10.1211C19.8535 9.92969 20.0586 9.59473 20.0586 9.24609C20.0586 8.89746 19.8535 8.54883 19.4229 8.35742ZM6.80371 12.7324V16.6221C7.9043 17.2852 9.46973 17.6885 11.3564 17.6885C15.1641 17.6885 17.666 16.0479 17.666 14.0859V11.9189L13.4756 13.8398C12.7168 14.1885 12.0195 14.3662 11.3564 14.3594C10.6934 14.3662 9.99609 14.1885 9.23047 13.8398L6.80371 12.7324ZM5.04688 11.9258V14.0859C5.04688 14.6533 5.36133 15.3438 5.92871 15.9248V12.3291L5.04688 11.9258ZM5.40234 18.1602V19.8555C5.40234 20.375 5.74414 20.7168 6.26367 20.7168H6.46875C6.98828 20.7168 7.33008 20.375 7.33008 19.8555V18.1602C7.33008 17.7637 7.13184 17.4697 6.80371 17.3604V16.6221C6.46875 16.417 6.1748 16.1846 5.92871 15.9248V17.3535C5.60059 17.4697 5.40234 17.7637 5.40234 18.1602Z" fill="white"/>
</svg>
