<svg width="24" height="24" viewBox="0 0 24 24" fill="none" xmlns="http://www.w3.org/2000/svg">
<path d="M4.13599 17.2305C5.04517 17.2305 5.66724 16.8955 6.22095 16.2256L7.38306 14.8311C7.55396 14.6328 7.73853 14.5371 7.93677 14.5371H14.1165C14.3147 14.5371 14.4993 14.6328 14.6702 14.8311L15.8323 16.2256C16.386 16.8955 17.0081 17.2305 17.9172 17.2305C19.4006 17.2305 20.4055 16.2461 20.4055 14.7148C20.4055 14.0586 20.2551 13.3066 20.0022 12.4658C19.6057 11.1396 18.9153 9.33496 18.2522 7.94043C17.6985 6.77148 17.4045 6.22461 16.0237 5.91016C14.7932 5.62988 13.0979 5.44531 11.0266 5.44531C8.95532 5.44531 7.26001 5.62988 6.03638 5.91016C4.64868 6.22461 4.35474 6.77148 3.80103 7.94043C3.13794 9.33496 2.44751 11.1396 2.05103 12.4658C1.7981 13.3066 1.64771 14.0586 1.64771 14.7148C1.64771 16.2461 2.65259 17.2305 4.13599 17.2305ZM5.77661 10.0527C5.77661 9.71777 5.98169 9.50586 6.33032 9.50586H7.47192V8.40527C7.47192 8.06348 7.67017 7.85156 8.00513 7.85156C8.32642 7.85156 8.53149 8.06348 8.53149 8.40527V9.50586H9.60474C9.97388 9.50586 10.1926 9.71777 10.1926 10.0527C10.1926 10.3945 9.97388 10.6064 9.60474 10.6064H8.53149V11.7139C8.53149 12.0557 8.32642 12.2676 8.00513 12.2676C7.67017 12.2676 7.47192 12.0557 7.47192 11.7139V10.6064H6.33032C5.98169 10.6064 5.77661 10.3945 5.77661 10.0527ZM14.0549 9.04102C14.0549 8.50781 14.4651 8.09082 14.9915 8.09082C15.5247 8.09082 15.928 8.50781 15.928 9.04102C15.928 9.56738 15.5247 9.9707 14.9915 9.9707C14.4651 9.9707 14.0549 9.56738 14.0549 9.04102ZM12.1477 10.9619C12.1477 10.4287 12.5579 10.0186 13.0842 10.0186C13.6106 10.0186 14.0208 10.4287 14.0208 10.9619C14.0208 11.4951 13.6106 11.8984 13.0842 11.8984C12.5579 11.8984 12.1477 11.4951 12.1477 10.9619Z" fill="white"/>
</svg>
