<svg width="24" height="24" viewBox="0 0 24 24" fill="none" xmlns="http://www.w3.org/2000/svg">
<path d="M11.7795 17.9551C15.4026 17.9551 18.4036 14.9541 18.4036 11.3311C18.4036 7.70801 15.3958 4.70703 11.7727 4.70703C8.15649 4.70703 5.15552 7.70801 5.15552 11.3311C5.15552 14.9541 8.15649 17.9551 11.7795 17.9551ZM10.0022 10.0596C9.98169 9.81348 9.86548 9.58789 9.69458 9.42383C10.262 8.00195 11.1575 6.70996 12.3196 5.66406C12.4016 5.6709 12.4905 5.68457 12.5725 5.69824C11.7454 7.11328 11.2463 8.69922 11.1165 10.3467C10.7405 10.2783 10.3645 10.1826 10.0022 10.0596ZM7.0354 8.21387C7.94458 6.83984 9.44165 5.86914 11.1438 5.6709C10.1868 6.68262 9.44165 7.8584 8.93579 9.13672C8.73755 9.14355 8.55981 9.20508 8.40942 9.30762C7.9104 9 7.45239 8.63086 7.0354 8.21387ZM13.7961 8.27539C13.7893 7.55078 13.885 6.82617 14.0969 6.14258C15.3411 6.70996 16.3596 7.71484 16.9407 8.95215C16.2776 9.45801 15.5325 9.84082 14.7463 10.0938C14.5618 9.86133 14.2747 9.7041 13.9602 9.69727C13.8577 9.23926 13.803 8.76074 13.7961 8.27539ZM12.9827 8.28223C12.9895 8.87695 13.0647 9.45801 13.1946 10.0254C13.0852 10.1416 13.0032 10.2783 12.9622 10.4355C12.7981 10.4492 12.634 10.4561 12.47 10.4561C12.2854 10.4561 12.1077 10.4492 11.9299 10.4424C12.0393 8.91797 12.4905 7.46191 13.2424 6.16309C13.0647 6.84668 12.9758 7.55078 12.9827 8.28223ZM6.09204 11.3311C6.09204 10.4902 6.27661 9.69043 6.61157 8.96582C7.02856 9.35547 7.47974 9.7041 7.96509 10.0049C7.95825 10.0527 7.95142 10.1074 7.95142 10.1621C7.95142 10.5107 8.12231 10.8184 8.38892 11.0029C8.25903 11.666 8.18384 12.3428 8.18384 13.0332C7.44556 12.6709 6.74829 12.2197 6.09888 11.6729C6.09204 11.5635 6.09204 11.4473 6.09204 11.3311ZM17.4739 11.3311C17.4739 11.8711 17.3918 12.4043 17.2483 12.9033C16.8723 13.1016 16.4895 13.2725 16.0999 13.4229C15.4915 12.8623 14.9856 12.2061 14.6028 11.4814C14.7737 11.3311 14.8967 11.126 14.9377 10.8936C15.7581 10.6338 16.5374 10.251 17.2483 9.75195C17.3918 10.251 17.4739 10.7842 17.4739 11.3311ZM11.0891 11.1738C11.0891 12.0078 11.1848 12.8281 11.3625 13.6211C11.26 13.71 11.1643 13.8193 11.1028 13.9424C10.385 13.833 9.68091 13.6484 8.99731 13.3887C8.97681 12.6367 9.03833 11.8916 9.18188 11.1738C9.40747 11.1328 9.61255 11.0098 9.7561 10.8389C10.1868 10.9824 10.6311 11.0918 11.0891 11.1602V11.1738ZM12.47 11.2695C12.675 11.2695 12.8733 11.2627 13.0715 11.249C13.2356 11.502 13.5022 11.6865 13.8167 11.7207C14.179 12.4521 14.6575 13.1221 15.2317 13.7031C14.4866 13.9082 13.7278 14.0244 12.969 14.0518C12.8323 13.71 12.5247 13.457 12.1555 13.4092C11.9915 12.7051 11.9094 11.9873 11.9026 11.2559C12.0872 11.2627 12.2786 11.2695 12.47 11.2695ZM6.30396 12.8691C6.90552 13.293 7.54126 13.6553 8.20435 13.9424C8.23853 14.626 8.34106 15.3096 8.5188 15.9727C7.46606 15.2275 6.66626 14.1338 6.30396 12.8691ZM11.7795 17.0254C11.0002 17.0254 10.2483 16.8613 9.5647 16.5605C9.28442 15.8223 9.11353 15.0566 9.04517 14.2705C9.69458 14.4961 10.3577 14.6602 11.0344 14.7559C11.1711 15.1455 11.5334 15.4326 11.9641 15.4531C12.1897 15.9658 12.4495 16.4648 12.7502 16.9365C12.4358 16.9912 12.1077 17.0254 11.7795 17.0254ZM12.7297 15.1592C12.8186 15.0771 12.887 14.9746 12.9417 14.8652C13.9534 14.8311 14.9583 14.6602 15.9358 14.3457C16.0793 14.4551 16.2229 14.5645 16.3733 14.667C15.6829 15.6104 14.7053 16.3418 13.5774 16.7246C13.2493 16.2256 12.9622 15.7061 12.7297 15.1592Z" fill="white"/>
</svg>
