<svg width="26" height="20" viewBox="0 0 26 20" fill="none" xmlns="http://www.w3.org/2000/svg">
<path d="M10.8955 19.979L8.5127 19.2876C8.26269 19.2173 8.12207 18.9556 8.19238 18.7056L13.5244 0.338392C13.5947 0.0883916 13.8564 -0.0522334 14.1064 0.0180791L16.4893 0.709485C16.7393 0.779798 16.8799 1.04152 16.8096 1.29152L11.4775 19.6587C11.4033 19.9087 11.1455 20.0532 10.8955 19.979ZM6.44238 15.5962L8.1416 13.7837C8.32129 13.5923 8.30957 13.2876 8.11035 13.1118L4.57129 9.99855L8.11035 6.88527C8.30957 6.70949 8.32519 6.4048 8.1416 6.21339L6.44238 4.40089C6.2666 4.21339 5.96973 4.20167 5.77832 4.38136L0.149414 9.6548C-0.0498047 9.83839 -0.0498047 10.1548 0.149414 10.3384L5.77832 15.6157C5.96973 15.7954 6.2666 15.7876 6.44238 15.5962ZM19.2236 15.6196L24.8525 10.3423C25.0518 10.1587 25.0518 9.8423 24.8525 9.6587L19.2236 4.37745C19.0361 4.20167 18.7393 4.20949 18.5596 4.39699L16.8604 6.20949C16.6807 6.40089 16.6924 6.70558 16.8916 6.88136L20.4307 9.99855L16.8916 13.1118C16.6924 13.2876 16.6768 13.5923 16.8604 13.7837L18.5596 15.5962C18.7354 15.7876 19.0322 15.7954 19.2236 15.6196Z" fill="white"/>
</svg>
