<svg width="55" height="28" viewBox="0 0 55 28" fill="none" xmlns="http://www.w3.org/2000/svg">
<path d="M15.5039 10.141C15.442 11.7908 16.4148 12.5214 16.4389 12.9853C16.4274 13.0798 16.3895 13.1705 16.3282 13.25C16.2669 13.3294 16.184 13.3953 16.0865 13.442L14.9866 14.0946C14.8442 14.1792 14.6764 14.2277 14.5027 14.2345C14.4658 14.233 13.7989 14.3678 12.7428 12.3691C12.0984 13.0509 11.2786 13.5986 10.346 13.9704C9.41338 14.3422 8.39279 14.5282 7.36232 14.5142C5.96328 14.579 2.17178 13.8412 2.36685 10.42C2.23022 7.6318 5.29384 5.89974 8.4623 6.04614C9.07245 6.0476 10.3185 6.07309 12.5004 6.50283V5.36511C12.7316 3.43784 11.2372 1.94249 8.64964 2.16683C8.44339 2.16756 6.98248 2.13041 4.71033 2.90322C4.07784 3.14941 3.99706 3.10862 3.78652 3.10862C3.14973 3.10862 3.41184 1.54408 3.53387 1.34596C3.98159 0.879801 6.61553 0.00939704 9.20049 0.0217794C10.9289 -0.107778 12.648 0.344338 13.9863 1.28041C14.5303 1.79615 14.9453 2.4 15.2063 3.05549C15.4673 3.71097 15.5688 4.40449 15.5048 5.09416L15.5039 10.141ZM8.07731 12.5002C10.8642 12.466 12.0441 11.0457 12.3131 10.2809C12.5245 9.54888 12.4893 9.08563 12.4893 8.28515C11.6583 8.11617 10.462 7.93189 9.08963 7.93044C7.7877 7.8474 5.40985 8.34051 5.50266 10.2802C5.3961 11.5031 6.45827 12.5672 8.07731 12.5002ZM22.7655 14.1791C22.09 14.2316 21.7755 13.8251 21.6758 13.4238L17.3962 1.43118C17.3129 1.22869 17.2579 1.01965 17.2312 0.806235C17.2154 0.71825 17.2415 0.628552 17.3037 0.55685C17.3659 0.485148 17.4591 0.437307 17.5629 0.42384C17.5836 0.420927 17.3799 0.42384 19.475 0.42384C20.2295 0.359744 20.4753 0.863048 20.5535 1.17916L23.6231 11.4368L26.4728 1.17916C26.5183 0.944626 26.7254 0.372855 27.5728 0.433309H29.0474C29.2339 0.420199 30.0022 0.39689 30.1371 1.18863L33.0091 11.5774L36.1775 1.18863C36.2188 1.02985 36.4113 0.360472 37.2672 0.433309H38.9619C39.0349 0.423841 39.4904 0.374311 39.413 1.05825C39.3761 1.193 39.7061 0.281808 34.8799 13.4333C34.7811 13.8346 34.4657 14.241 33.7902 14.1886H32.1841C31.244 14.2724 31.109 13.485 31.0944 13.4056L28.2448 3.41745L25.4278 13.3954C25.4141 13.4748 25.2791 14.2622 24.3381 14.1784H22.7655V14.1791ZM46.2673 14.5892C45.762 14.5899 43.3523 14.5674 41.338 13.694C41.1374 13.622 40.9664 13.5011 40.847 13.3467C40.7275 13.1923 40.6648 13.0112 40.6668 12.8266V12.0436C40.6668 11.4281 41.1996 11.541 41.4257 11.6145C42.2885 11.9103 42.8419 12.1346 43.9015 12.3138C47.051 12.8622 48.4363 12.1463 48.7758 11.9875C49.9058 11.4186 49.9952 10.117 49.2269 9.44181C48.3263 8.80157 47.8967 8.77753 44.6612 7.91223C44.2624 7.81827 40.9058 6.92091 40.898 4.09847C40.8456 2.04155 43.0507 0.00648331 46.8723 0.0232359C47.9611 0.0225075 50.8623 0.324053 51.6478 1.16095C51.7638 1.31318 51.8214 1.49236 51.8128 1.67373V2.41011C51.8128 2.73351 51.6735 2.8952 51.3942 2.8952C50.7317 2.83256 49.5561 2.08161 47.1696 2.11221C46.5775 2.08598 43.7416 2.17849 43.8688 3.93095C43.8319 5.31194 46.1556 5.82981 46.4211 5.88954C49.5544 6.68856 50.6019 6.82113 51.8454 8.04406C53.3184 9.66469 52.5243 11.5621 52.2192 12.0822C50.5796 14.8128 46.3395 14.5907 46.2673 14.5892ZM49.7219 22.2269C43.7038 25.9941 34.9676 27.9993 27.5083 27.9993C17.4435 28.0555 7.71793 24.9188 0.243373 19.2056C-0.31779 18.7766 0.177202 18.1888 0.859535 18.5159C9.15104 22.5359 18.5388 24.6481 28.091 24.6429C35.2243 24.6105 42.2798 23.384 48.8523 21.0338C49.8646 20.6697 50.7231 21.602 49.7219 22.2269ZM52.2304 19.8022C51.4604 18.9631 47.1361 19.4103 45.2 19.6062C44.6165 19.6623 44.5176 19.2333 45.0462 18.9165C48.4896 16.8646 54.1451 17.4524 54.7947 18.1422C55.4436 18.832 54.6186 23.6349 51.3951 25.9292C50.9001 26.2839 50.4266 26.0968 50.6466 25.6306C51.3719 24.0828 53.0004 20.642 52.2304 19.8022Z" fill="#ED930B"/>
</svg>
