<svg width="39" height="35" viewBox="0 0 39 35" fill="none" xmlns="http://www.w3.org/2000/svg">
<path d="M25.7002 21.596C25.7002 24.8544 22.3188 24.7791 21.9613 24.7791H15.0751V18.5027H21.9613C25.5844 18.5027 25.7002 20.9536 25.7002 21.596ZM21.4309 15.9772C21.488 15.9772 24.7033 16.054 24.7033 13.1874C24.7033 11.995 24.4045 10.4314 21.4309 10.4314H15.0751V15.9772H21.4309ZM38.9549 5.82532V28.7721C38.9499 30.2923 38.2786 31.749 37.0876 32.8239C35.8966 33.8989 34.2826 34.5047 32.5982 34.5092H7.1734C5.48904 34.5047 3.87508 33.8989 2.68404 32.8239C1.49301 31.749 0.821713 30.2923 0.816772 28.7721L0.816772 5.82532C0.821713 4.30513 1.49301 2.84847 2.68404 1.77352C3.87508 0.698574 5.48904 0.0927009 7.1734 0.0882416H32.5982C34.2826 0.0927009 35.8966 0.698574 37.0876 1.77352C38.2786 2.84847 38.9499 4.30513 38.9549 5.82532ZM29.5949 22.0516C29.5949 20.3943 29.0287 17.573 25.4192 16.8769V16.8208C27.3696 16.0694 28.598 14.6503 28.598 12.5459C28.598 12.008 28.7682 7.56865 21.9919 7.56865H11.1805V27.6473C22.0966 27.6473 23.0875 27.7764 25.1077 27.2086C26.3174 26.869 29.5949 25.8271 29.5949 22.0516Z" fill="#7758D1"/>
</svg>
