<svg width="49" height="39" viewBox="0 0 49 39" fill="none" xmlns="http://www.w3.org/2000/svg">
<path d="M9.59437 32.9665L6.27002 2.72363H42.8112L39.4825 32.9617L24.5184 36.3255L9.59437 32.9665Z" fill="#1572B6"/>
<path d="M24.5405 33.7549L36.6331 31.0368L39.4779 5.19699H24.5405V33.7549Z" fill="#33A9DC"/>
<path d="M24.5405 16.1536H30.5942L31.0116 12.3554H24.5405V8.64597H36.0115L35.9019 9.64082L34.7785 19.863H24.5405V16.1536Z" fill="#2C2F48"/>
<path d="M24.5687 25.7865L24.5479 25.7913L19.4534 24.6752L19.1277 21.7171H14.5349L15.1758 27.541L24.5465 29.6507L24.5687 29.6459V25.7865Z" fill="#2C2F48"/>
<path d="M30.205 19.7058L29.6543 24.6729L24.5524 25.7889V29.6483L33.9304 27.541L34 26.9146L34.7948 19.7058H30.205Z" fill="#2C2F48"/>
<path d="M24.5569 8.64597V12.3554H13.5063L13.4145 11.5213L13.2058 9.64082L13.0963 8.64597H24.5569ZM24.5406 16.1536V19.863H19.5097L19.4179 19.0289L19.2107 17.1484L19.1012 16.1536H24.5406Z" fill="#2C2F48"/>
</svg>
