<svg width="48" height="39" viewBox="0 0 48 39" fill="none" xmlns="http://www.w3.org/2000/svg">
<g clip-path="url(#clip0_27_23)">
<path d="M42.5272 20.9951H34.9946V17.9414H42.5272V20.9951ZM42.5272 22.74H34.9946V25.7937H42.5272V22.74ZM42.5272 8.34414H34.9946V11.3978H42.5272V8.34422V8.34414ZM42.5272 13.1428H34.9946V16.1964H42.5272V13.1428ZM42.5272 27.5386H34.9946V30.5923H42.5272V27.5385V27.5386ZM47.73 33.5587C47.5148 34.4661 46.1697 34.4879 45.2712 34.5185H28.5381V38.4446H25.1968L0.570679 34.9546V4.42241L25.3422 0.928116H28.5381V4.40493H44.6955C45.6048 4.43546 46.6056 4.3831 47.3964 4.82368C47.9506 5.46931 47.8969 6.28948 47.9346 7.03105L47.913 29.7416C47.8862 31.011 48.0582 32.3067 47.73 33.5587ZM20.3006 26.7141C18.8157 24.2713 17.3038 21.8457 15.8242 19.4027C17.2876 17.0253 18.7296 14.6391 20.1662 12.2528C18.9448 12.3008 17.7234 12.3619 16.5075 12.4317C15.5982 14.2246 14.5382 15.9696 13.828 17.8236C13.1662 16.0743 12.2893 14.3904 11.4876 12.6847C10.3039 12.7371 9.12014 12.7938 7.9365 12.8505C9.18471 15.0841 10.5138 17.287 11.7243 19.5336C10.2985 21.7148 8.96417 23.9266 7.58136 26.1209C8.75963 26.1601 9.93799 26.1994 11.1163 26.2124C11.9557 24.4762 12.9994 22.8055 13.7312 21.0343C14.3876 22.9363 15.5013 24.6944 16.416 26.5134C17.7127 26.5877 19.004 26.6531 20.3007 26.7141H20.3006ZM45.3684 6.47677H28.5381V8.34414H32.8425V11.3978H28.5381V13.1428H32.8425V16.1964H28.5381V17.9414H32.8425V20.9951H28.5381V22.74H32.8425V25.7937H28.5381V27.5386H32.8425V30.5923H28.5381V32.6097H45.3684V6.47677Z" fill="white"/>
</g>
<defs>
<clipPath id="clip0_27_23">
<rect x="0.570679" y="0.485291" width="47.3639" height="38.4021" fill="white"/>
</clipPath>
</defs>
</svg>
