<svg width="33" height="40" viewBox="0 0 33 40" fill="none" xmlns="http://www.w3.org/2000/svg">
<g clip-path="url(#clip0_27_82)">
<path d="M8.44891 39.3433C12.8064 39.3433 16.3429 36.4759 16.3429 32.9429V26.5426H8.44891C4.09143 26.5426 0.554932 29.4099 0.554932 32.9429C0.554932 36.4759 4.09143 39.3433 8.44891 39.3433Z" fill="#0ACF83"/>
<path d="M0.554932 20.1422C0.554932 16.6092 4.09143 13.7419 8.44891 13.7419H16.3429V26.5426H8.44891C4.09143 26.5426 0.554932 23.6752 0.554932 20.1422Z" fill="#A259FF"/>
<path d="M0.554932 7.34152C0.554932 3.80853 4.09143 0.941177 8.44891 0.941177H16.3429V13.7419H8.44891C4.09143 13.7419 0.554932 10.8745 0.554932 7.34152Z" fill="#F24E1E"/>
<path d="M16.3429 0.941177H24.2369C28.5944 0.941177 32.1309 3.80853 32.1309 7.34152C32.1309 10.8745 28.5944 13.7419 24.2369 13.7419H16.3429V0.941177Z" fill="#FF7262"/>
<path d="M32.1309 20.1422C32.1309 23.6752 28.5944 26.5426 24.2369 26.5426C19.8794 26.5426 16.3429 23.6752 16.3429 20.1422C16.3429 16.6092 19.8794 13.7419 24.2369 13.7419C28.5944 13.7419 32.1309 16.6092 32.1309 20.1422Z" fill="#1ABCFE"/>
</g>
<defs>
<clipPath id="clip0_27_82">
<rect x="0.554932" y="0.941177" width="31.5759" height="38.4021" fill="white"/>
</clipPath>
</defs>
</svg>
