<svg width="49" height="39" viewBox="0 0 49 39" fill="none" xmlns="http://www.w3.org/2000/svg">
<path d="M47.2938 17.7247L26.6135 0.959794C26.3304 0.730106 25.9942 0.5479 25.6242 0.423587C25.2541 0.299275 24.8575 0.235291 24.457 0.235291C24.0565 0.235291 23.6598 0.299275 23.2898 0.423587C22.9198 0.5479 22.5836 0.730106 22.3005 0.959794L18.0081 4.43998L23.4549 8.85622C24.0973 8.6784 24.7884 8.65057 25.4494 8.77594C26.1103 8.9013 26.7145 9.17479 27.1929 9.5652C27.6714 9.95562 28.0048 10.4472 28.1552 10.9839C28.3055 11.5206 28.2668 12.0807 28.0433 12.6004L33.2918 16.8583C34.0683 16.6366 34.9148 16.6359 35.6918 16.8564C36.4689 17.0768 37.1302 17.5052 37.5668 18.071C38.0035 18.6369 38.1895 19.3064 38.0942 19.9694C37.9988 20.6324 37.6279 21.2493 37.0425 21.7185C36.4498 22.202 35.6684 22.5037 34.8319 22.572C33.9954 22.6402 33.1556 22.4709 32.4559 22.0929C31.7562 21.7149 31.2401 21.1517 30.9958 20.4995C30.7514 19.8472 30.7939 19.1464 31.1161 18.5167L26.2228 14.5469V24.9947C26.9666 25.2932 27.5617 25.7894 27.909 26.4005C28.2563 27.0117 28.3347 27.7009 28.1313 28.3532C27.9278 29.0056 27.4547 29.5817 26.7909 29.9855C26.1271 30.3894 25.3126 30.5966 24.4832 30.5725C23.6538 30.5485 22.8596 30.2948 22.233 29.8535C21.6064 29.4123 21.1853 28.8103 21.0397 28.1479C20.8942 27.4854 21.0331 26.8025 21.4333 26.213C21.8334 25.6235 22.4707 25.163 23.2388 24.9083V14.3645C22.7957 14.2173 22.3928 14.0004 22.0535 13.7263C21.7142 13.4522 21.4452 13.1264 21.2619 12.7677C21.0786 12.4089 20.9847 12.0243 20.9857 11.636C20.9866 11.2476 21.0823 10.8633 21.2673 10.5051L15.9004 6.15128L1.72085 17.6479C1.43756 17.8775 1.21283 18.1501 1.05951 18.4501C0.906186 18.7501 0.827271 19.0716 0.827271 19.3964C0.827271 19.7211 0.906186 20.0427 1.05951 20.3427C1.21283 20.6427 1.43756 20.9153 1.72085 21.1449L22.4011 37.9122C22.6842 38.1419 23.0204 38.3241 23.3905 38.4484C23.7605 38.5727 24.1571 38.6367 24.5576 38.6367C24.9582 38.6367 25.3548 38.5727 25.7248 38.4484C26.0948 38.3241 26.431 38.1419 26.7142 37.9122L47.2967 21.2241C47.8681 20.7601 48.1891 20.1313 48.1891 19.4756C48.1891 18.8199 47.8681 18.1911 47.2967 17.7271" fill="white"/>
</svg>
