<svg width="35" height="40" viewBox="0 0 35 40" fill="none" xmlns="http://www.w3.org/2000/svg">
<g clip-path="url(#clip0_27_48)">
<path d="M34.3679 8.1308L31.3186 35.8271L17.612 38.908L3.94309 35.8314L0.896973 8.1308H34.3679Z" fill="#E44D26"/>
<path d="M17.6321 36.553L28.7077 34.0635L31.3134 10.3957H17.6321V36.553Z" fill="#F16529"/>
<path d="M11.7043 17.1905H17.632V13.7932H7.125L7.22524 14.7046L8.25517 24.0668H17.632V20.6695H12.0873L11.7043 17.1905ZM12.6487 25.7656H8.4424L9.0294 31.0999L17.6128 33.0317L17.632 33.0275V29.4928L17.6137 29.4967L12.9471 28.4751L12.6487 25.7656Z" fill="#2C2F48"/>
<path d="M4.01074 0.602936H6.14015V2.30869H8.0881V0.602936H10.2176V5.76839H8.08823V4.0387H6.14028V5.76839H4.01087V0.602936H4.01074ZM13.0178 2.31592H11.1434V0.602936H17.0231V2.31592H15.1476V5.76839H13.0181V2.31592H13.018H13.0178ZM17.9562 0.602936H20.1765L21.5423 2.41794L22.9068 0.602936H25.1281V5.76839H23.0073V3.20811L21.5423 5.04471H21.5056L20.0397 3.20811V5.76839H17.9562V0.602936ZM26.1878 0.602936H28.3179V4.06104H31.3124V5.76839H26.1877V0.602936H26.1878Z" fill="black"/>
<path d="M17.6177 24.0668H22.7775L22.291 28.473L17.6176 29.4957V33.0302L26.2077 31.0999L26.2707 30.5259L27.2555 21.5818L27.3577 20.6695H17.6177V24.0668ZM17.6177 17.1822V17.1905H27.739L27.823 16.4269L28.014 14.7046L28.1141 13.7932H17.6177V17.1823V17.1822Z" fill="#2C2F48"/>
</g>
<defs>
<clipPath id="clip0_27_48">
<rect x="0.837646" y="0.602936" width="33.5889" height="38.4021" fill="white"/>
</clipPath>
</defs>
</svg>
