<svg width="39" height="35" viewBox="0 0 39 35" fill="none" xmlns="http://www.w3.org/2000/svg">
<path d="M34.6225 0.323517H4.6569C2.40097 0.323517 0.570679 1.97542 0.570679 4.01148V31.0565C0.570679 33.0926 2.40097 34.7445 4.6569 34.7445H34.6225C36.8785 34.7445 38.7088 33.0926 38.7088 31.0565V4.01148C38.7088 1.97542 36.8785 0.323517 34.6225 0.323517ZM21.3253 27.1688C21.3253 30.5187 19.146 32.0477 15.9706 32.0477C13.1018 32.0477 11.4417 30.7108 10.5904 29.0896L13.5104 27.4992C14.0722 28.3981 14.583 29.1587 15.8174 29.1587C16.9922 29.1587 17.7413 28.7439 17.7413 27.1227V16.128H21.3253V27.1688ZM29.8042 32.0477C26.4756 32.0477 24.3219 30.6186 23.2748 28.7439L26.1947 27.2226C26.9609 28.352 27.9654 29.1895 29.7276 29.1895C31.2088 29.1895 32.1623 28.521 32.1623 27.5914C32.1623 26.485 31.1918 26.0931 29.5488 25.4401L28.655 25.0943C26.067 24.1032 24.3559 22.8508 24.3559 20.2154C24.3559 17.7875 26.4075 15.9436 29.5999 15.9436C31.8814 15.9436 33.5159 16.6581 34.6906 18.5328L31.8984 20.1463C31.2855 19.1552 30.6214 18.7633 29.5914 18.7633C28.5443 18.7633 27.8803 19.3626 27.8803 20.1463C27.8803 21.1144 28.5443 21.5062 30.0851 22.1132L30.979 22.459C34.0266 23.6345 35.7377 24.8408 35.7377 27.5453C35.7377 30.4495 33.2009 32.0477 29.8042 32.0477Z" fill="#E8DE02"/>
</svg>
