<svg width="49" height="39" viewBox="0 0 49 39" fill="none" xmlns="http://www.w3.org/2000/svg">
<path d="M25.453 36.2814L24.3414 35.9826C24.3414 35.9826 24.4895 31.4223 22.4543 31.1019C21.1222 29.8442 22.6511 -22.5902 27.5207 30.9231C26.5968 31.3031 25.8899 31.958 25.5477 32.7508C25.3644 33.9218 25.3326 35.1051 25.453 36.2814Z" fill="url(#paint0_linear_27_64)"/>
<path d="M26.054 31.8759C29.0136 30.0696 31.2801 27.6193 32.5902 24.8098C33.9002 22.0004 34.2 18.9472 33.4546 16.0051C31.2788 8.22265 26.1265 5.66411 25.5714 4.68726C25.0926 4.07898 24.6838 3.43623 24.3503 2.76715L24.7603 24.4511C24.7603 24.4511 23.9107 31.0779 26.054 31.8759Z" fill="url(#paint1_linear_27_64)"/>
<path d="M23.776 32.1639C23.776 32.1639 14.7162 27.1609 15.2401 18.3104C15.289 15.6422 16.0436 13.0136 17.4528 10.6021C18.862 8.19068 20.8931 6.0525 23.4089 4.33202C23.7029 4.12951 23.9365 3.87561 24.0921 3.5894C24.2477 3.30319 24.3213 2.99211 24.3074 2.67953C24.8713 3.66359 24.7795 17.3719 24.8387 18.9752C25.0681 25.212 24.411 30.9867 23.776 32.1639Z" fill="url(#paint2_linear_27_64)"/>
<defs>
<linearGradient id="paint0_linear_27_64" x1="17.9808" y1="19.7833" x2="30.1043" y2="24.8574" gradientUnits="userSpaceOnUse">
<stop offset="0.231" stop-color="#999875"/>
<stop offset="0.563" stop-color="#9B9977"/>
<stop offset="0.683" stop-color="#A09F7E"/>
<stop offset="0.768" stop-color="#A9A889"/>
<stop offset="0.837" stop-color="#B7B69A"/>
<stop offset="0.896" stop-color="#C9C7B0"/>
<stop offset="0.948" stop-color="#DEDDCB"/>
<stop offset="0.994" stop-color="#F8F6EB"/>
<stop offset="1" stop-color="#FBF9EF"/>
</linearGradient>
<linearGradient id="paint1_linear_27_64" x1="22.6659" y1="2.61221" x2="26.411" y2="31.4556" gradientUnits="userSpaceOnUse">
<stop stop-color="#48A547"/>
<stop offset="1" stop-color="#3F9143"/>
</linearGradient>
<linearGradient id="paint2_linear_27_64" x1="14.4608" y1="19.1865" x2="28.8613" y2="13.2383" gradientUnits="userSpaceOnUse">
<stop stop-color="#41A247"/>
<stop offset="0.352" stop-color="#4BA74B"/>
<stop offset="0.956" stop-color="#67B554"/>
<stop offset="1" stop-color="#69B655"/>
</linearGradient>
</defs>
</svg>
