<svg width="48" height="40" viewBox="0 0 48 40" fill="none" xmlns="http://www.w3.org/2000/svg">
<path fill-rule="evenodd" clip-rule="evenodd" d="M13.3222 9.1502C12.9301 9.14919 12.5395 9.18953 12.1603 9.27021V9.31221H12.2165C12.4881 9.64465 12.791 9.9596 13.1224 10.2543C13.3503 10.6215 13.5486 10.9875 13.7751 11.3547L13.8313 11.3079C14.0416 11.1726 14.2062 10.9963 14.3097 10.7955C14.4132 10.5947 14.4523 10.3758 14.4234 10.1595C14.2994 10.0045 14.1858 9.84425 14.083 9.67943C13.9127 9.45022 13.5442 9.33501 13.3177 9.1514" fill="#5D87A1"/>
<path fill-rule="evenodd" clip-rule="evenodd" d="M41.4371 29.1769C39.5701 29.0706 37.6966 29.2899 35.9429 29.8201C35.5181 29.9581 34.8402 29.9581 34.781 30.3938C35.0089 30.5774 35.0356 30.8738 35.2354 31.1294C35.6231 31.6616 36.1213 32.1354 36.7081 32.5299C37.3002 32.8971 37.8922 33.2631 38.5213 33.5847C39.624 34.138 40.8717 34.4584 41.9463 35.0092C42.5709 35.3308 43.1925 35.7436 43.8171 36.0893C44.128 36.2729 44.3248 36.5693 44.7215 36.6893V36.6197C44.6049 36.3647 44.4608 36.1185 44.2908 35.8841C44.0081 35.656 43.7239 35.4484 43.4397 35.2192C42.6095 34.3291 41.6162 33.5472 40.4943 32.9007C39.587 32.3943 37.6036 31.7006 37.238 30.8606L37.1803 30.8138C37.8442 30.7375 38.4985 30.6138 39.1355 30.4442C40.0976 30.2377 40.9753 30.2846 41.9655 30.0841C42.4199 29.9917 43.2414 29.7625 43.2414 29.7625V29.4025C42.7352 28.9945 42.3725 28.4485 41.8397 28.0632C40.3901 27.0372 38.8452 26.1032 37.2188 25.2695C36.3499 24.8147 35.2295 24.5218 34.3044 24.1342C33.9699 23.9974 33.4163 23.9302 33.2136 23.7022C32.7535 23.1549 32.3683 22.5686 32.065 21.9537C31.2369 20.661 30.4711 19.3428 29.7693 18.0019C29.3558 17.1172 28.8789 16.2529 28.341 15.4133C25.7454 11.8353 21.9988 8.89676 17.5021 6.91209C16.3675 6.46681 15.1611 6.15331 13.9187 5.98084C13.2171 5.95684 12.5185 5.91243 11.8184 5.89083C11.3665 5.65078 10.9366 5.38446 10.5322 5.09399C8.93069 4.27194 4.81595 2.50545 3.63777 4.84437C2.88291 6.32165 4.7597 7.77373 5.40356 8.52377C5.94645 9.05262 6.4248 9.62293 6.83187 10.2267C7.02873 10.6131 7.08497 11.0223 7.27591 11.4267C7.68677 12.4649 8.17462 13.482 8.73679 14.4725C9.03746 14.962 9.38383 15.4322 9.77287 15.879C9.99933 16.1298 10.3901 16.239 10.4745 16.653C10.164 17.194 9.9469 17.767 9.82912 18.3559C9.33986 19.6087 9.1598 20.9273 9.29922 22.2365C9.43865 23.5456 9.89483 24.8197 10.6417 25.9859C11.0857 26.5535 12.1544 27.8028 13.5827 27.3252C14.8423 26.9172 14.5625 25.6223 14.9267 24.4882C15.0095 24.2134 14.9548 24.0334 15.122 23.8522V24.073C15.122 24.073 15.8369 25.3463 16.1922 25.9931C17.1582 27.18 18.3583 28.23 19.7444 29.1013C20.2927 29.4894 20.7345 29.9665 21.041 30.5018V30.9134H21.673C21.6599 30.7278 21.5964 30.5468 21.4872 30.3834C21.378 30.2199 21.2256 30.078 21.041 29.9677C20.5228 29.5352 20.0481 29.0697 19.6216 28.5757C18.463 27.2378 17.4413 25.8255 16.5666 24.3526C16.1226 23.6326 15.7481 22.843 15.3929 22.1241C15.2301 21.8469 15.2301 21.4281 14.9563 21.2841C14.4506 21.7691 14.0119 22.2975 13.6478 22.8597C13.2059 23.9963 12.9486 25.1747 12.8826 26.3651C12.7746 26.3891 12.8278 26.3651 12.7746 26.4107C11.9028 26.2247 11.6023 25.4603 11.2737 24.8123C10.4249 22.8136 10.3393 20.6538 11.028 18.6151C11.2175 18.1291 12.0389 16.5978 11.7104 16.1334C11.5461 15.6906 10.9999 15.4373 10.7009 15.0881C10.3192 14.6183 9.99077 14.1215 9.71959 13.6036C9.06982 12.3124 8.74123 10.8723 8.03373 9.57143C7.64209 8.94579 7.18608 8.34804 6.67054 7.78453C6.10027 7.22163 5.59724 6.61607 5.16822 5.97604C5.03205 5.72042 4.84111 5.3028 5.05869 5.02438C5.07337 4.94705 5.11873 4.87569 5.1879 4.82113C5.25707 4.76656 5.34629 4.73175 5.44204 4.72197C5.79431 4.46755 6.80523 4.79157 7.15898 4.93078C8.10974 5.23425 9.01536 5.62352 9.85872 6.09124C10.2406 6.32405 11.1405 6.91329 11.1405 6.91329H11.4069C12.3128 7.0729 13.3311 6.95769 14.1836 7.1653C15.6191 7.55327 16.989 8.08544 18.2614 8.74939C22.0115 10.6877 25.0602 13.398 27.0962 16.6038C27.4366 17.1306 27.5802 17.6143 27.891 18.1639C28.4831 19.292 29.2231 20.444 29.8152 21.5409C30.3375 22.6261 31.013 23.6586 31.8282 24.6178C32.2515 25.0979 33.9521 25.3523 34.7174 25.6043C35.3819 25.7907 36.034 26.005 36.6711 26.2463C37.6347 26.7264 38.5953 27.2796 39.5026 27.8064C39.954 28.0824 41.3705 28.6561 41.4563 29.1157" fill="#00758F"/>
</svg>
