<svg width="39" height="40" viewBox="0 0 39 40" fill="none" xmlns="http://www.w3.org/2000/svg">
<path d="M19.0984 39.4256C18.5281 39.4256 17.9492 39.2873 17.4469 39.0261L12.1944 36.2217C11.4112 35.8222 11.7943 35.6839 12.0497 35.607C13.0968 35.2766 13.3096 35.2075 14.4248 34.6313C14.544 34.5698 14.6972 34.5928 14.8164 34.662L18.8516 36.821C18.9963 36.8978 19.2006 36.8978 19.3368 36.821L35.0603 28.6306C35.205 28.5538 35.2986 28.4001 35.2986 28.2465V11.8658C35.2986 11.7044 35.205 11.5585 35.0517 11.4739L19.3368 3.29129C19.1921 3.21445 18.9963 3.21445 18.8516 3.29129L3.14514 11.4816C2.99191 11.5585 2.89827 11.7121 2.89827 11.8735V28.2465C2.89827 28.4001 2.99191 28.5538 3.14514 28.623L7.45271 30.8665C9.79377 31.9191 11.224 30.6821 11.224 29.4297V13.2641C11.224 13.0336 11.4283 12.8569 11.6837 12.8569H13.6757C13.9226 12.8569 14.1354 13.0336 14.1354 13.2641V29.4374C14.1354 32.2495 12.4328 33.8629 9.47879 33.8629C8.5679 33.8629 7.85282 33.8629 5.86078 32.9717L1.7405 30.8281C0.718949 30.2979 0.0889893 29.3068 0.0889893 28.2388V11.8658C0.0889893 10.8055 0.718949 9.80668 1.7405 9.27654L17.4469 1.08619C18.4429 0.579098 19.7625 0.579098 20.75 1.08619L36.4734 9.28422C37.495 9.81436 38.1249 10.8055 38.1249 11.8735V28.2465C38.1249 29.3068 37.495 30.2979 36.4734 30.8357L20.75 39.0261C20.2477 39.2873 19.6773 39.4256 19.0984 39.4256ZM31.7913 23.2831C31.7913 20.2175 29.4928 19.4031 24.6659 18.8268C19.7795 18.2429 19.2857 17.9432 19.2857 16.9137C19.2857 16.0608 19.7029 14.9237 23.3209 14.9237C26.5473 14.9237 27.7391 15.5537 28.2329 17.5207C28.2754 17.7051 28.4627 17.8434 28.6755 17.8434H30.7186C30.8463 17.8434 30.9655 17.7973 31.0506 17.7127C31.1358 17.6282 31.1783 17.513 31.1698 17.3977C30.8549 14.0094 28.3606 12.4344 23.3209 12.4344C18.8345 12.4344 16.1615 14.14 16.1615 17.0059C16.1615 20.1099 18.826 20.9704 23.1251 21.3546C28.2754 21.8079 28.6755 22.4917 28.6755 23.406C28.6755 24.9888 27.2624 25.6649 23.9508 25.6649C19.788 25.6649 18.8771 24.7199 18.5706 22.8528C18.5366 22.6531 18.3493 22.5071 18.1195 22.5071H16.0849C15.8295 22.5071 15.6337 22.6915 15.6337 22.9143C15.6337 25.3038 17.0724 28.1543 23.9593 28.1543C28.9309 28.1466 31.7913 26.3718 31.7913 23.2831Z" fill="#61C554"/>
</svg>
