<svg width="48" height="39" viewBox="0 0 48 39" fill="none" xmlns="http://www.w3.org/2000/svg">
<g clip-path="url(#clip0_27_54)">
<path d="M23.9041 0.290253C11.8621 0.290253 12.614 4.52427 12.614 4.52427L12.6274 8.91084H24.1188V10.2278H8.06318C8.06318 10.2278 0.357544 9.51925 0.357544 19.3705C0.357544 29.2221 7.08321 28.8727 7.08321 28.8727H11.0971V24.3012C11.0971 24.3012 10.8807 18.8481 17.7154 18.8481H29.1128C29.1128 18.8481 35.5162 18.932 35.5162 13.8304V5.39517C35.5162 5.39517 36.4888 0.290253 23.9041 0.290253ZM17.5677 3.24013C17.8393 3.23994 18.1082 3.28316 18.3591 3.36732C18.6101 3.45148 18.838 3.57494 19.0301 3.73062C19.2221 3.88631 19.3743 4.07116 19.4781 4.27461C19.582 4.47806 19.6353 4.6961 19.635 4.91627C19.6353 5.13644 19.582 5.35449 19.4781 5.55794C19.3743 5.76139 19.2221 5.94624 19.0301 6.10192C18.838 6.25761 18.6101 6.38106 18.3591 6.46523C18.1082 6.54939 17.8393 6.59261 17.5677 6.59241C17.2962 6.59261 17.0272 6.54939 16.7763 6.46523C16.5254 6.38106 16.2974 6.25761 16.1054 6.10192C15.9134 5.94624 15.7611 5.76139 15.6573 5.55794C15.5535 5.35449 15.5002 5.13644 15.5004 4.91627C15.5002 4.6961 15.5535 4.47806 15.6573 4.27461C15.7611 4.07116 15.9134 3.88631 16.1054 3.73062C16.2974 3.57494 16.5254 3.45148 16.7763 3.36732C17.0272 3.28316 17.2962 3.23994 17.5677 3.24013Z" fill="url(#paint0_linear_27_54)"/>
<path d="M24.2458 38.5499C36.2878 38.5499 35.5359 34.3159 35.5359 34.3159L35.5225 29.9294H24.0309V28.6125H40.0865C40.0865 28.6125 47.7922 29.321 47.7922 19.4695C47.7922 9.61806 41.0665 9.96744 41.0665 9.96744H37.0527V14.5388C37.0527 14.5388 37.269 19.9919 30.4343 19.9919H19.0369C19.0369 19.9919 12.6335 19.908 12.6335 25.0098V33.4451C12.6335 33.4451 11.6612 38.5499 24.2456 38.5499H24.2458ZM30.5822 35.6003C30.3106 35.6005 30.0417 35.5573 29.7908 35.4731C29.5399 35.389 29.3119 35.2655 29.1198 35.1098C28.9278 34.9541 28.7756 34.7693 28.6718 34.5658C28.568 34.3624 28.5147 34.1443 28.5149 33.9242C28.5146 33.704 28.5679 33.4859 28.6717 33.2825C28.7755 33.079 28.9278 32.8941 29.1198 32.7384C29.3118 32.5827 29.5398 32.4593 29.7907 32.3751C30.0417 32.2909 30.3106 32.2477 30.5822 32.2479C30.8537 32.2477 31.1227 32.2909 31.3736 32.3751C31.6245 32.4592 31.8525 32.5827 32.0445 32.7384C32.2365 32.8941 32.3888 33.0789 32.4926 33.2824C32.5964 33.4858 32.6497 33.7038 32.6495 33.924C32.6497 34.1442 32.5964 34.3622 32.4926 34.5657C32.3888 34.7691 32.2365 34.954 32.0445 35.1097C31.8525 35.2654 31.6245 35.3888 31.3736 35.473C31.1227 35.5571 30.8537 35.6004 30.5822 35.6002V35.6003Z" fill="url(#paint1_linear_27_54)"/>
</g>
<defs>
<linearGradient id="paint0_linear_27_54" x1="4.91602" y1="3.73148" x2="23.6025" y2="26.5488" gradientUnits="userSpaceOnUse">
<stop stop-color="#387EB8"/>
<stop offset="1" stop-color="#366994"/>
</linearGradient>
<linearGradient id="paint1_linear_27_54" x1="19.3446" y1="15.8482" x2="39.6053" y2="39.471" gradientUnits="userSpaceOnUse">
<stop stop-color="#FFE052"/>
<stop offset="1" stop-color="#FFC331"/>
</linearGradient>
<clipPath id="clip0_27_54">
<rect x="0.324585" y="0.279419" width="47.5612" height="38.4021" fill="white"/>
</clipPath>
</defs>
</svg>
