<svg width="54" height="42" viewBox="0 0 54 42" fill="none" xmlns="http://www.w3.org/2000/svg">
<path d="M44.107 13.6106C43.5375 13.4419 42.968 13.2825 42.3984 13.1325C42.4934 12.7856 42.5777 12.4388 42.6621 12.0919C43.9594 6.50473 43.1051 2.01435 40.2258 0.533174C37.452 -0.882375 32.9273 0.589421 28.35 4.13298C27.8965 4.47984 27.4535 4.84544 27.0316 5.21105C26.7469 4.96731 26.4516 4.72358 26.1562 4.48921C21.3574 0.701915 16.548 -0.89175 13.6688 0.598796C10.9055 2.02372 10.0828 6.25162 11.243 11.5388C11.359 12.0638 11.4855 12.5794 11.6332 13.1044C10.9582 13.2731 10.2937 13.4606 9.67148 13.6575C4.03945 15.3918 0 18.1291 0 20.9602C0 23.8851 4.30313 26.8193 10.1566 28.6004C10.6313 28.741 11.1059 28.8817 11.591 29.0035C11.4328 29.566 11.2957 30.1191 11.1691 30.6909C10.0617 35.8938 10.9266 40.0186 13.6898 41.4341C16.5375 42.8965 21.3258 41.3966 25.9875 37.7687C26.3566 37.4781 26.7258 37.1781 27.0949 36.8594C27.559 37.2625 28.0441 37.6468 28.5293 38.0218C33.0434 41.4716 37.5047 42.8684 40.2574 41.4529C43.1051 39.9904 44.0332 35.5563 42.8309 30.1566C42.7359 29.7441 42.6305 29.3223 42.5145 28.891C42.852 28.8067 43.1789 28.7129 43.5059 28.6192C49.5914 26.8286 54 23.9319 54 20.9602C54 18.1197 49.8445 15.3636 44.107 13.6106ZM29.8371 5.65165C33.7605 2.61431 37.4203 1.42375 39.0867 2.27683C40.8691 3.18616 41.5547 6.86096 40.4367 11.6888C40.3629 12.0076 40.2891 12.3169 40.1941 12.6263C37.8527 12.1576 35.4797 11.8201 33.0961 11.6326C31.725 9.88893 30.2273 8.22026 28.6031 6.65472C29.0145 6.30787 29.4152 5.97976 29.8371 5.65165ZM17.6344 25.8256C18.1723 26.6412 18.7207 27.4567 19.3008 28.2536C17.6555 28.0942 16.0207 27.8598 14.407 27.5505C14.8711 26.2006 15.4512 24.8038 16.1262 23.3788C16.6113 24.2038 17.107 25.0194 17.6344 25.8256ZM14.4387 14.548C15.9574 14.2481 17.5711 14.0043 19.248 13.8168C18.6891 14.5949 18.1406 15.3918 17.6238 16.198C17.107 16.9948 16.6008 17.8104 16.1262 18.6353C15.4617 17.2385 14.9027 15.8699 14.4387 14.548ZM17.3285 21.0071C18.0246 19.7134 18.784 18.4478 19.5855 17.201C20.3871 15.9542 21.252 14.7449 22.159 13.5544C23.741 13.4512 25.3547 13.395 27 13.395C28.6453 13.395 30.2695 13.4512 31.841 13.5544C32.7375 14.7355 33.5918 15.9449 34.4039 17.1823C35.216 18.4197 35.9754 19.6853 36.6926 20.9696C35.9859 22.2633 35.2266 23.5382 34.4145 24.7944C33.6129 26.0412 32.7586 27.2505 31.8621 28.4504C30.2906 28.5536 28.6559 28.6004 27 28.6004C25.3441 28.6004 23.741 28.5536 22.1906 28.4692C21.273 27.2786 20.4082 26.0599 19.5961 24.8131C18.784 23.5663 18.0352 22.3008 17.3285 21.0071ZM36.3762 25.8068C36.9141 24.9819 37.4203 24.1475 37.916 23.3038C38.591 24.6631 39.1816 26.0412 39.6984 27.4567C38.0637 27.7848 36.4078 28.038 34.7414 28.2067C35.3109 27.4192 35.8488 26.613 36.3762 25.8068ZM37.8949 18.6353C37.3992 17.8104 36.893 16.9854 36.3656 16.1792C35.8488 15.3824 35.3109 14.5949 34.752 13.8168C36.45 14.0043 38.0742 14.2574 39.593 14.5668C39.1078 15.9542 38.5383 17.3042 37.8949 18.6353ZM27.0211 8.08902C28.1285 9.15771 29.1727 10.2827 30.143 11.4451C28.0547 11.3607 25.9559 11.3607 23.8676 11.4451C24.9012 10.2358 25.9664 9.11084 27.0211 8.08902ZM14.7867 2.34245C16.5586 1.42375 20.4926 2.73618 24.6375 5.99851C24.9012 6.20475 25.1648 6.42973 25.4391 6.65472C23.8043 8.22026 22.2961 9.88893 20.9145 11.6326C18.5309 11.8201 16.1684 12.1482 13.827 12.6075C13.6898 12.1294 13.5738 11.642 13.4578 11.1545C12.4664 6.61722 13.1203 3.19553 14.7867 2.34245ZM12.2027 27.0536C11.7598 26.9411 11.3273 26.8193 10.8949 26.688C8.64844 26.0599 6.09609 25.0662 4.25039 23.7632C3.18516 23.107 2.46797 22.0945 2.26758 20.9602C2.26758 19.2447 5.60039 17.051 10.4098 15.5605C11.0109 15.373 11.6227 15.2043 12.2344 15.0449C12.9516 17.0792 13.8164 19.0759 14.8184 21.0071C13.8059 22.9664 12.9305 24.9912 12.2027 27.0536ZM24.5004 36.2406C22.7602 37.6562 20.7457 38.7811 18.552 39.5498C17.3812 40.0467 16.0312 40.0936 14.8289 39.6717C13.152 38.8093 12.4559 35.5001 13.4051 31.0472C13.5211 30.5222 13.6477 29.9972 13.7953 29.4816C16.1578 29.9316 18.5414 30.241 20.9566 30.4003C22.3488 32.1534 23.8781 33.8314 25.5129 35.4063C25.1754 35.6969 24.8379 35.9782 24.5004 36.2406ZM27.0844 33.9626C26.0086 32.9314 24.9328 31.7878 23.8887 30.5597C24.9012 30.5972 25.9453 30.6159 27 30.6159C28.0863 30.6159 29.1516 30.5972 30.2062 30.5503C29.2359 31.7409 28.1918 32.8752 27.0844 33.9626ZM40.8691 36.775C40.7742 37.9187 40.1414 38.9874 39.1289 39.7092C37.452 40.5717 33.8766 39.4467 30.0164 36.5031C29.5734 36.1656 29.1305 35.8 28.677 35.4251C30.2906 33.8408 31.7777 32.1627 33.1277 30.4003C35.543 30.2222 37.9477 29.8941 40.3207 29.416C40.4262 29.8004 40.5211 30.1847 40.6055 30.5597C41.1223 32.5846 41.2066 34.6938 40.8691 36.775ZM42.7887 26.6974C42.4934 26.7818 42.198 26.8661 41.8922 26.9411C41.1539 24.8975 40.2469 22.9007 39.2027 20.9602C40.2152 19.0478 41.0695 17.0792 41.7867 15.0636C42.3352 15.2043 42.8625 15.3543 43.3688 15.5042C48.2836 17.0042 51.7324 19.2353 51.7324 20.9415C51.7324 22.7789 48.0516 25.1506 42.7887 26.6974ZM27 25.2912C29.6684 25.2912 31.8305 23.3695 31.8305 20.9977C31.8305 18.626 29.6684 16.7042 27 16.7042C24.3316 16.7042 22.1695 18.626 22.1695 20.9977C22.1695 23.3695 24.3316 25.2912 27 25.2912Z" fill="#0F92F0"/>
</svg>
