<svg width="33" height="26" viewBox="0 0 33 26" fill="none" xmlns="http://www.w3.org/2000/svg">
<path d="M16.6224 24.0601C13.8811 24.0628 11.2008 23.4041 8.92258 22.1678C6.64438 20.9316 4.87132 19.1738 3.82905 17.118C2.78679 15.0623 2.52244 12.8016 3.06966 10.6237C3.61688 8.4458 4.95092 6.44912 6.90199 4.8878C8.85307 3.32648 11.333 2.27111 14.0261 1.85601C16.7192 1.4409 19.5037 1.68483 22.0253 2.55675C24.5469 3.42866 26.6916 4.88914 28.1863 6.75232C29.6811 8.6155 30.4583 10.7971 30.4191 13.0195C30.3673 15.9598 28.8915 18.7656 26.3102 20.8313C23.7289 22.8969 20.2493 24.0567 16.6224 24.0601Z" fill="#002BB5"/>
<path d="M9.86523 18.1638C9.89089 18.2126 9.91062 18.263 9.94121 18.3102C12.1269 21.6752 17.5767 22.0032 20.5547 20.2735C21.2415 19.9268 21.8336 19.4698 22.2947 18.9308C22.7558 18.3918 23.0762 17.782 23.2361 17.139C23.3961 16.4959 23.3922 15.8332 23.2249 15.1914C23.0575 14.5496 22.7301 13.9423 22.2627 13.4068C21.8692 12.9213 21.4347 12.4586 20.9622 12.0219C20.0929 11.1682 19.2305 10.3098 18.3611 9.45615C18 9.10173 17.6043 8.78811 16.9639 8.90972C16.7191 8.94096 16.4893 9.02529 16.2987 9.15377C16.1082 9.28225 15.964 9.4501 15.8815 9.63956C15.799 9.82903 15.7812 10.033 15.83 10.23C15.8788 10.427 15.9924 10.6097 16.1587 10.7586C17.0349 11.6435 17.9536 12.5003 18.8229 13.3876C19.3531 13.8553 19.6931 14.4438 19.7971 15.0735C19.901 15.7031 19.7639 16.3434 19.4041 16.9078C18.9681 17.6673 18.2702 18.3082 17.3947 18.7531C16.5192 19.1981 15.5035 19.428 14.4704 19.4151C12.7938 19.4951 11.1439 19.0468 9.86523 18.1638Z" fill="white"/>
<path d="M23.0127 7.74645C23.0916 7.54804 22.9476 7.45044 22.8736 7.33923C21.9208 6.0443 20.4 5.08887 18.6156 4.66417C16.8311 4.23946 14.9147 4.3768 13.2498 5.04871C9.99356 6.35278 8.21741 9.33054 10.6478 12.3667C11.9086 13.7952 13.2709 15.1629 14.728 16.4629C14.8159 16.5445 14.9231 16.611 15.0433 16.6584C15.1634 16.7059 15.2941 16.7332 15.4276 16.7389C15.712 16.7699 16.0012 16.7274 16.2541 16.6175C16.507 16.5077 16.7109 16.336 16.8366 16.1269C16.9757 15.9387 17.0343 15.7186 17.0034 15.5006C16.9725 15.2827 16.8539 15.079 16.6659 14.9212C15.8016 14.0804 14.9204 13.2508 14.0856 12.3915C13.3832 11.7411 13.0232 10.8934 13.0828 10.0302C13.1424 9.16709 13.6168 8.35726 14.4043 7.77445C15.185 7.12857 16.1731 6.6728 17.2568 6.45873C18.3404 6.24466 19.4764 6.28084 20.536 6.56319C21.4839 6.7578 22.3434 7.1684 23.0127 7.74645Z" fill="white"/>
</svg>
