<svg width="49" height="39" viewBox="0 0 49 39" fill="none" xmlns="http://www.w3.org/2000/svg">
<path d="M39.4784 21.1758C38.1769 21.1772 36.8929 21.4185 35.7234 21.8814C35.3572 21.3887 35.0744 20.8584 34.8826 20.3045C34.7725 19.8704 34.747 19.425 34.8072 18.9845C34.9337 18.4997 35.0978 18.022 35.2986 17.554C35.2912 17.4928 35.2083 17.2036 34.375 17.194C33.5417 17.1844 32.8238 17.3224 32.7468 17.5012C32.6021 17.8278 32.4859 18.1622 32.399 18.502C31.7093 19.8815 30.8604 21.2051 29.8636 22.4551C29.3051 21.7127 29.0753 20.8382 29.2123 19.9757C29.3388 19.491 29.5029 19.0132 29.7037 18.5452C29.6963 18.484 29.6134 18.1948 28.7801 18.1852C27.9468 18.1756 27.2289 18.3136 27.152 18.4924C27.075 18.6713 26.9773 19.0925 26.8042 19.4933C26.631 19.8941 24.6091 23.5567 24.0792 24.5012C23.8069 24.9812 23.5716 25.3724 23.4058 25.6364C23.3979 25.6536 23.388 25.6701 23.3762 25.6856L23.1497 26.0361V26.0421C23.0358 26.2077 22.9144 26.3613 22.8537 26.3613C22.7479 26.0184 22.753 25.6592 22.8685 25.3184C23.1645 24.0476 23.8898 22.0722 23.8824 22.0038C23.8824 21.9666 24.0186 21.6234 23.4132 21.4458C23.2728 21.3916 23.1151 21.3741 22.9619 21.3956C22.8087 21.4171 22.6675 21.4765 22.5577 21.5658C22.5044 21.5658 22.4674 21.6702 22.4674 21.6702C22.4674 21.6702 23.126 19.4489 21.2108 19.4489C20.4649 19.5705 19.7566 19.8119 19.1275 20.1587C18.4984 20.5056 17.9612 20.9509 17.5475 21.4686C17.0324 21.6954 15.9356 22.1802 14.7619 22.7023C14.3178 22.9051 13.8531 23.1079 13.4224 23.3023C13.3928 23.2783 13.3617 23.2471 13.3321 23.2231C11.0009 21.2094 6.71595 19.7885 6.90096 17.0944C6.96905 16.1127 7.38496 13.535 15.129 10.404C21.5024 7.85747 26.5747 8.56311 27.4524 10.128C28.7091 12.3625 24.7349 16.5111 18.1499 17.1124C17.4214 17.2322 16.669 17.2177 15.9483 17.0701C15.2276 16.9224 14.5571 16.6452 13.9863 16.2591C13.6385 15.9519 13.5852 15.9339 13.4564 15.9951C13.2448 16.0875 13.3809 16.3635 13.4564 16.5231C13.7076 16.8917 14.0474 17.2158 14.4557 17.4761C14.864 17.7364 15.3325 17.9278 15.8335 18.0388C18.4241 18.4927 21.125 18.2757 23.5553 17.4184C27.5516 16.1667 30.6599 12.6865 29.7481 9.77157C28.8319 6.81341 22.7767 5.83776 17.0457 7.49145C13.456 8.47079 10.1392 10.0134 7.28431 12.0313C4.12722 14.4254 3.62841 16.5051 3.83267 17.3776C4.57273 20.4714 9.82864 22.4839 11.9319 23.9779C11.8369 24.0218 11.7411 24.0646 11.6448 24.1064C10.5924 24.53 6.58126 26.2305 5.57625 28.0282C4.441 30.0683 5.75831 31.5264 6.62862 31.7232C7.94002 31.9777 9.31671 31.8938 10.5665 31.4834C11.8163 31.0729 12.8768 30.3562 13.6 29.4334C14.2158 28.6681 14.5943 27.7933 14.7034 26.8838C14.8124 25.9742 14.6486 25.0568 14.2261 24.2096C14.2189 24.1959 14.2089 24.1833 14.1965 24.1724L15.0209 23.7799C15.5219 23.5398 16.0292 23.3086 16.5425 23.0863C16.2343 23.8069 16.0535 24.5592 16.0052 25.3208C15.9006 26.4882 16.3412 27.6448 17.2396 28.561C17.3763 28.6564 17.535 28.7289 17.7065 28.7742C17.878 28.8195 18.0589 28.8368 18.2387 28.825C19.1268 28.825 19.5338 28.225 19.9793 27.5121C20.524 26.6409 21.0154 25.628 21.0154 25.628C21.0154 25.628 20.4026 28.3654 22.0678 28.3654C22.6731 28.3654 23.2859 27.7269 23.5597 27.4053V27.4113L23.6056 27.3501L23.7033 27.2217V27.2097C23.946 26.8665 24.4907 26.0865 25.3003 24.7916C26.3453 23.1223 27.3518 21.0354 27.3518 21.0354C27.4489 21.494 27.5829 21.947 27.7529 22.3915C27.9967 22.9302 28.285 23.455 28.6158 23.9623C28.3731 24.2384 28.2221 24.392 28.2221 24.392L28.2295 24.398C28.0326 24.6068 27.821 24.8336 27.5857 25.0544C26.8855 25.6785 26.2358 26.3388 25.6408 27.0309C25.5524 27.1472 25.522 27.2864 25.5558 27.4202C25.5896 27.554 25.6851 27.6723 25.8228 27.751C26.1344 27.8824 26.4896 27.9299 26.8367 27.8866C27.3599 27.8626 27.8743 27.7673 28.3583 27.6045C28.826 27.4711 29.2673 27.2831 29.6682 27.0465C30.0815 26.8144 30.4142 26.4999 30.6342 26.1334C30.8543 25.7668 30.9544 25.3605 30.9248 24.9536C30.8783 24.441 30.7168 23.9395 30.4482 23.4739C30.5237 23.3875 30.5962 23.3023 30.6673 23.2159C31.5088 22.1975 32.2672 21.1356 32.9378 20.0369C33.0348 20.4956 33.1688 20.9486 33.3389 21.393C33.54 21.8586 33.7875 22.3101 34.0789 22.7431C33.1109 23.347 32.3483 24.1407 31.8632 25.0496C31.3866 26.1669 31.7566 26.6697 32.4553 26.7861C32.8375 26.8075 33.2198 26.744 33.5609 26.6025C34.0625 26.4688 34.535 26.272 34.9611 26.0193C35.4104 25.8043 35.7867 25.5021 36.0562 25.1399C36.3257 24.7777 36.4799 24.3668 36.5049 23.9443C36.4713 23.5226 36.3538 23.108 36.157 22.7167C37.4345 22.312 38.8197 22.183 40.177 22.3423C43.7797 22.6855 44.4916 24.5084 44.3554 25.2764C44.2916 25.5487 44.1565 25.8067 43.9595 26.0332C43.7624 26.2596 43.5078 26.4493 43.2128 26.5893C42.9626 26.7177 42.8797 26.7609 42.9019 26.8533C42.9315 26.9889 43.05 26.9817 43.2646 26.9577C43.8075 26.8209 44.2866 26.5538 44.6386 26.1918C44.9905 25.8297 45.1989 25.3896 45.2361 24.9296C45.3501 23.1295 43.2305 21.1554 39.4829 21.1734L39.4784 21.1758ZM11.6818 28.7698C10.4858 29.8259 8.82068 30.2243 8.10134 29.8871C7.32872 29.527 7.63214 27.967 9.10042 26.8485C9.9714 26.2128 10.9128 25.6436 11.9127 25.148C12.0873 25.0616 12.3448 24.9392 12.6527 24.788L12.7356 24.7508L12.9177 24.6584C13.18 25.371 13.2038 26.1273 12.9866 26.8498C12.7694 27.5723 12.319 28.235 11.6818 28.7698ZM20.3863 23.9695C19.9704 24.7916 19.1001 26.8977 18.5702 26.7801C18.1158 26.6817 17.8302 25.0856 18.4799 23.5087C18.808 22.7496 19.2859 22.0387 19.8949 21.4038C20.5462 20.8146 21.2655 20.6178 21.4387 20.8578C21.2807 21.9317 20.926 22.9805 20.3863 23.9695ZM27.5694 26.7561C27.3947 26.8293 27.2289 26.8761 27.1535 26.8425C27.1002 26.8185 27.2289 26.7225 27.2289 26.7225C27.2289 26.7225 28.1303 25.9365 28.4856 25.5812C28.6898 25.3724 28.9296 25.1276 29.1901 24.8504V24.9296C29.1901 25.868 28.0697 26.5005 27.5709 26.7585L27.5694 26.7561ZM33.1109 25.7312C32.9822 25.658 33.0044 25.412 33.4366 24.6452C33.7371 24.1527 34.1569 23.7143 34.671 23.3563C34.7498 23.538 34.7908 23.729 34.7924 23.9215C34.7982 24.3314 34.6366 24.7313 34.3327 25.0589C34.0288 25.3865 33.5997 25.6233 33.1124 25.7324L33.1109 25.7312Z" fill="#CD6799"/>
</svg>
