<svg width="48" height="39" viewBox="0 0 48 39" fill="none" xmlns="http://www.w3.org/2000/svg">
<g clip-path="url(#clip0_27_34)">
<path d="M3.77354 0.426453H43.7368C45.7805 0.426453 47.4371 1.76963 47.4371 3.42662V35.8284C47.4371 37.4854 45.7805 38.8285 43.7368 38.8285H3.77354C1.72987 38.8285 0.0732422 37.4854 0.0732422 35.8284V3.42662C0.0732422 1.76963 1.72987 0.426453 3.77354 0.426453Z" fill="#3178C6"/>
<path d="M27.9213 30.4993V34.6426C28.7524 34.9879 29.7354 35.2468 30.8701 35.4195C32.0048 35.5921 33.2007 35.6784 34.4581 35.6784C35.6832 35.6784 36.8474 35.5834 37.95 35.3935C39.0527 35.2036 40.0198 34.8907 40.8507 34.4549C41.6818 34.019 42.3397 33.4492 42.8246 32.7457C43.3094 32.0423 43.5517 31.1727 43.5517 30.1369C43.5517 29.386 43.4132 28.7277 43.1362 28.1624C42.8623 27.6008 42.455 27.0883 41.9375 26.654C41.4156 26.2138 40.7895 25.8189 40.0598 25.4693C39.3299 25.1197 38.5068 24.7896 37.5904 24.4789C36.9191 24.2543 36.3173 24.0365 35.7844 23.825C35.2518 23.6135 34.7989 23.3978 34.4261 23.1776C34.0531 22.9575 33.7654 22.7244 33.563 22.4784C33.3606 22.2324 33.2594 21.9541 33.2594 21.6433C33.2594 21.3584 33.3498 21.1018 33.531 20.873C33.7121 20.6443 33.968 20.4479 34.2982 20.2839C34.6285 20.1198 35.0333 19.9926 35.5128 19.9019C35.9922 19.8113 36.5251 19.766 37.111 19.766C37.5373 19.766 37.9874 19.7919 38.4614 19.8437C38.9356 19.8954 39.4124 19.9752 39.892 20.0832C40.37 20.1907 40.8374 20.327 41.2903 20.4911C41.7295 20.6489 42.1495 20.8396 42.5449 21.0607V17.1894C41.7671 16.9478 40.9173 16.7686 39.9958 16.6521C39.0742 16.5355 38.0166 16.4773 36.8233 16.4773C35.6087 16.4773 34.4581 16.5831 33.3713 16.7946C32.2845 17.006 31.3282 17.3361 30.5024 17.7849C29.6767 18.2339 29.0242 18.8058 28.5446 19.5006C28.0652 20.1954 27.8255 21.0262 27.8255 21.993C27.8255 23.2272 28.2649 24.2803 29.1441 25.1521C30.0231 26.0238 31.3574 26.7619 33.1474 27.3661C33.8082 27.5843 34.4636 27.8131 35.1132 28.0524C35.7206 28.2768 36.2453 28.5098 36.6875 28.7514C37.1297 28.9931 37.4786 29.2564 37.7343 29.5412C37.99 29.8261 38.1179 30.1498 38.1179 30.5124C38.12 30.7733 38.0373 31.0301 37.8781 31.2569C37.7184 31.4855 37.4759 31.6841 37.151 31.8524C36.8261 32.0207 36.4211 32.1523 35.9363 32.2472C35.4516 32.3422 34.8842 32.3897 34.2342 32.3897C33.1261 32.3897 32.0288 32.2322 30.942 31.9171C29.8551 31.602 28.8482 31.1295 27.9213 30.4993ZM19.4039 20.1888H25.9753V16.7773H7.65881V20.1888H14.1982V35.3784H19.4039V20.1888Z" fill="#2C2F48"/>
</g>
<defs>
<clipPath id="clip0_27_34">
<rect x="0.0732422" y="0.426453" width="47.3639" height="38.4021" fill="white"/>
</clipPath>
</defs>
</svg>
