<svg width="49" height="39" viewBox="0 0 49 39" fill="none" xmlns="http://www.w3.org/2000/svg">
<path d="M10.71 9.59489L14.1587 22.8904L17.6163 9.59489H24.5195L17.6163 29.1896H10.713L3.79785 9.59489H10.71ZM27.9697 9.59489H39.2186C40.0777 9.67515 40.9056 9.90409 41.6461 10.2662C42.3866 10.6283 43.0226 11.1152 43.511 11.6938C44.0747 12.4279 44.368 13.2773 44.3561 14.1419C44.3504 15.0024 44.0584 15.8457 43.511 16.5829C42.7161 17.6095 41.4825 18.3627 40.046 18.6986C40.913 18.7766 41.749 19.0052 42.4971 19.3689C43.2453 19.7325 43.8879 20.2227 44.3813 20.8059C44.9647 21.56 45.2631 22.4361 45.2398 23.326C45.3188 24.3899 45.0215 25.4499 44.3828 26.3814C43.8192 27.1238 43.0646 27.7588 42.1705 28.243C41.2765 28.7273 40.264 29.0493 39.2024 29.1872H27.9697V9.59489ZM34.8804 17.2945H36.6062C37.2629 17.2585 37.8782 17.0216 38.3277 16.6317C38.7771 16.2418 39.0271 15.7281 39.0271 15.1944C39.0271 14.6607 38.7771 14.147 38.3277 13.7571C37.8782 13.3672 37.2629 13.1303 36.6062 13.0943H34.8804V17.2945ZM34.8804 25.695H36.9378C37.7145 25.6638 38.4466 25.3917 38.9828 24.935C39.5189 24.4783 39.8179 23.8719 39.8179 23.2414C39.8179 22.6109 39.5189 22.0046 38.9828 21.5479C38.4466 21.0911 37.7145 20.819 36.9378 20.7879H34.8804V25.695Z" fill="#00519A"/>
</svg>
